<svg xmlns="http://www.w3.org/2000/svg" viewBox="0 0 32 32" fill="none">
  <defs>
    <linearGradient id="bazarGrad" x1="6" y1="4" x2="28" y2="30" gradientUnits="userSpaceOnUse">
      <stop stop-color="#f68182"/>
      <stop offset="0.55" stop-color="#e85d6a"/>
      <stop offset="1" stop-color="#c94a5c"/>
    </linearGradient>
  </defs>
  <rect width="32" height="32" rx="9" fill="url(#bazarGrad)"/>
  <path fill="#fff" fill-opacity="0.92" d="M16 9.5c-.8 1.6-2.4 2.8-3.8 4.1-1.1 1-2 2.1-2.6 3.4-.5 1.1-.8 2.3-.8 3.5 0 .8.2 1.6.5 2.3.6 1.3 1.6 2.4 2.9 3 .5.2 1 .4 1.6.5.3.1.7.1 1 .2h.4c.3 0 .7-.1 1-.2.5-.1 1.1-.3 1.6-.5 1.3-.6 2.3-1.7 2.9-3 .3-.7.5-1.5.5-2.3 0-1.2-.3-2.4-.8-3.5-.6-1.3-1.5-2.4-2.6-3.4-1.4-1.3-3-2.5-3.8-4.1Z"/>
  <circle cx="16" cy="19" r="2.2" fill="url(#bazarGrad)" opacity="0.35"/>
</svg>
